<svg width="18706" height="18706" viewBox="0 0 18706 18706" fill="none" xmlns="http://www.w3.org/2000/svg">
<path d="M5408.1 13369.1L5134.3 11965.8M5408.1 13369.1L5591.58 13458.4L7784.21 12868.8L11383 11696.4L11545.2 11518.5M5408.1 13369.1L5933.72 12957M4316.47 7742.99L4547.4 6840.3H4904.27L5072.22 8015.9L4694.35 8981.57L5072.22 9695.33V11647.7L5134.3 11965.8M4316.47 7742.99L3917.61 5811.65L5369.78 4234.19L7453.89 2796.8L7825.46 2830.77L7927.25 3103.58L8109.33 3879.96M4316.47 7742.99L4043.57 8141.86L3560.73 8981.57L3371.79 9338.45L3161.86 10849.9L2867.96 11815.6L2553.07 15405.4M5072.22 15909.2L4833.27 13944.5M4694.35 12802.3L4833.27 13944.5M4833.27 13944.5C4819.18 13828.7 4874.73 13246.7 4904.27 12970.2L4926.35 12651M4926.35 12651L5146.96 12469.3L5134.3 11965.8M4926.35 12651C4926.35 12630.2 4771.68 12394.4 4694.35 12279L3935.78 11965.8M4995.56 12469.3C4988.64 12469.3 4900.4 12281.9 4857.14 12188.2L4437.56 11868.1M4666.81 12694.3L4541.37 12970.2L4575.98 14493.7M11545.2 11518.5L11215.6 11233.3M11545.2 11518.5L12253.9 12059.9L12820.2 12461.5L14529.5 14520.8M10885.9 10948.2L10415 10336L10169.1 9548.38L9929.92 8851.67M10885.9 10948.2L11215.6 11233.3M10885.9 10948.2L6146.92 12789.9M9640.66 7667.58L9755.77 8002.44L9885.26 8693.09M9640.66 7667.58L9787.16 7542H10106.3L10275.9 7779.78M9640.66 7667.58L9565.79 7264L8968.19 7542M10938.3 9137.83L10582.5 8525.66L10558.9 8334.69M10938.3 9137.83L11001 9613.97M10938.3 9137.83L11016.7 9213.7M11184.2 9681.98L11095.2 9289.57L11016.7 9213.7M10558.9 8334.69L10535.4 8143.71L10320.8 7842.86M10558.9 8334.69L10797 8755.88L11001 8975.63M11001 8975.63L11016.7 9213.7M11001 8975.63V8483.8M11001 8483.8L11147.5 8693.09L11184.2 8933.77M11001 8483.8L10833.6 8143.71V8002.44M10833.6 8002.44L11042.9 8180.33M10833.6 8002.44L10456.9 7542M10456.9 7542L10320.8 7842.86M10456.9 7542L10023.5 6645.71L9860.95 6121.91L9824.82 5808.84L9860.95 5483.73L9942.23 5393.42M10320.8 7842.86L10275.9 7779.78M11679.2 7464.51L11360.1 7217.67L11027.1 6837.74M11027.1 6837.74L10890.5 6681.83L10456.9 5905.17L10435.4 5858.51M11027.1 6837.74L11402.2 6916.63L12088.6 7410.33L12455.8 7542L12756.9 7667.58M12756.9 7667.58L12850.2 7779.78M12756.9 7667.58H12528.1L12365.5 7729.42M13268.6 7940.14H13118.1L12943.5 7891.98L12850.2 7779.78M13268.6 7940.14L13118.1 7777.58L12850.2 7779.78M13268.6 7940.14L13503.4 8265.25L13720.2 8403.73L14159.7 9878.77L14322.2 10637.4L14713.6 11287.6L15255.4 11925.8L16152.5 12732.5M11679.2 7596.97L12034.4 7729.42L12166.8 7940.14L12299.3 8451.89L12630.4 9379.07M13063.9 8334.69L13316.8 9764.39M13647.9 8770.98L13900.8 9878.77M8109.33 3879.96L8961.15 3359.13L9161.61 3399.22L9205.8 3553.76M8109.33 3879.96L8233 4407.26M10275.9 7779.78L9299.07 3879.96L9289.88 3847.81M8233 4407.26C8263.12 4395.71 8950.14 4029.48 9289.88 3847.81M8233 4407.26L8277.24 4595.91M9289.88 3847.81L9205.8 3553.76M8277.24 4595.91L8864.01 4297.39L9127.18 5421.83L8538.52 5709.96M8277.24 4595.91L8538.52 5709.96M8538.52 5709.96L8584.3 5905.17M8584.3 5905.17L9127.18 5597.28L9478.07 6916.63L8892.12 7217.67M8584.3 5905.17L8892.12 7217.67M8892.12 7217.67L8968.19 7542M8968.19 7542L9294.6 8933.77M9885.26 8693.09L9897.04 8755.88L9929.92 8851.67M9885.26 8693.09L9294.6 8933.77M9294.6 8933.77L9342.45 9137.83M9255.61 10282.5L9336.53 10188C9402.49 10111 9438.74 10013 9438.74 9911.58V9548.38L9342.45 9137.83M9255.61 10282.5L9072.49 10496.3L7677.52 11589.9M9255.61 10282.5V10637.4L10235.7 10198.7L9929.92 8851.67M9929.92 8851.67L9342.45 9137.83M5933.72 12957C6000.36 12957.8 9482.72 11808.2 11215.6 11233.3M5933.72 12957L6146.92 12789.9M6146.92 12789.9L7047.93 12083.5M7047.93 12083.5L9828.95 10948.2M7047.93 12083.5L7677.52 11589.9M7677.52 11589.9L10315.4 10496.3M9205.8 3553.76L9428.52 3597.08L9451.52 3677.52M9942.23 5393.42L10023.5 5303.11H10180L10435.4 5858.51M9942.23 5393.42L9451.52 3677.52M9451.52 3677.52L9640.66 3491.55L10517.4 3553.76L10693.3 4136.09L10890.5 5257.29L10770.7 5531.65L10435.4 5858.51M9035.72 4238.78L9225.7 4136.09L9428.52 4839.53L9241.1 4952.5L9035.72 4238.78Z" stroke="#C6DCFF" stroke-width="72"/>
</svg>
