<svg width="18706" height="18706" viewBox="0 0 18706 18706" fill="none" xmlns="http://www.w3.org/2000/svg">
<path d="M13025.7 9364.28C13025.7 9982.82 12873.9 10565.9 12605.7 11078.3M13025.7 9364.28C13025.7 8736.65 12869.4 8145.54 12593.8 7627.75M13025.7 9364.28L12321 9352.75M12605.7 11078.3C11988.1 12258 10752.8 13062.9 9329.66 13062.9M12605.7 11078.3H10950.3M9329.66 13062.9C7906.51 13062.9 6671.23 12258 6053.62 11078.3M9329.66 13062.9C8625.61 13062.9 8014.5 12258 7708.96 11078.3M9329.66 13062.9C10033.7 13062.9 10644.8 12258 10950.3 11078.3M9329.66 13062.9L9329.65 11078.3M6053.62 11078.3C5785.38 10565.9 5633.65 9982.82 5633.65 9364.28M6053.62 11078.3H7708.96M5633.65 9364.28C5633.65 8736.65 5789.87 8145.54 6065.53 7627.75M5633.65 9364.28L6338.3 9352.75M6065.53 7627.75C6687.01 6460.35 7915.6 5665.69 9329.66 5665.69M6065.53 7627.75H7714.85M9329.66 5665.69C10743.7 5665.69 11972.3 6460.35 12593.8 7627.75M9329.66 5665.69C8630.1 5665.69 8022.31 6460.35 7714.85 7627.75M9329.66 5665.69C10029.2 5665.69 10637 6460.35 10944.5 7627.75M9329.66 5665.69L9329.65 7627.75M12593.8 7627.75H10944.5M7708.96 11078.3C7643.87 10826.9 7592.64 10558.6 7557.34 10277.4M7708.96 11078.3H9329.65M7557.34 10277.4H7018.74C6642.94 10277.4 6338.3 9972.55 6338.3 9596.49V9352.75M7557.34 10277.4H9329.65M7560.28 8428.11C7596.54 8146.89 7648.76 7878.71 7714.85 7627.75M7560.28 8428.11H7018.74C6642.94 8428.11 6338.3 8732.96 6338.3 9109.01V9352.75M7560.28 8428.11H9329.65M7714.85 7627.75H9329.65M10944.5 7627.75C11010.6 7878.71 11062.8 8146.89 11099 8428.11M10944.5 7627.75H9329.65M11099 8428.11H11640.6C12016.4 8428.11 12321 8732.96 12321 9109.01V9352.75M11099 8428.11H9329.65M9329.65 7627.75L9329.65 8428.11M10950.3 11078.3H9329.65M10950.3 11078.3C11015.4 10826.9 11066.7 10558.6 11102 10277.4M9329.65 11078.3L9329.65 10277.4M11102 10277.4H11640.6C12016.4 10277.4 12321 9972.55 12321 9596.49V9352.75M11102 10277.4H9329.65M15432 9352.76C15432 12712.3 12710.5 15435.7 9353.35 15435.7C5996.2 15435.7 3274.69 12712.3 3274.69 9352.76C3274.69 5993.26 5996.2 3269.84 9353.35 3269.84C12710.5 3269.84 15432 5993.26 15432 9352.76Z" stroke="#C6DCFF" stroke-width="72"/>
<path d="M8674.01 8963.19L8498.23 9677.05H8270.2L8201.84 9366.02C8200.54 9360.16 8198.42 9350.23 8195.49 9336.23C8192.89 9322.24 8189.8 9306.29 8186.21 9288.38C8182.96 9270.48 8179.87 9252.9 8176.94 9235.65C8174.33 9218.07 8172.38 9203.26 8171.08 9191.21C8169.78 9203.26 8167.66 9218.07 8164.73 9235.65C8161.8 9252.9 8158.55 9270.48 8154.96 9288.38C8151.71 9306.29 8148.45 9322.24 8145.2 9336.23C8142.27 9350.23 8140.15 9360.16 8138.85 9366.02L8070 9677.05H7841.98L7665.22 8963.19H7851.25L7928.89 9321.1C7930.84 9329.89 7933.45 9342.42 7936.7 9358.7C7940.28 9374.65 7943.86 9392.22 7947.45 9411.43C7951.35 9430.31 7954.93 9448.54 7958.19 9466.12C7961.44 9483.7 7963.72 9498.34 7965.02 9510.06C7967.63 9489.88 7971.05 9466.93 7975.28 9441.21C7979.83 9415.5 7984.72 9389.46 7989.93 9363.09C7995.46 9336.4 8000.67 9311.66 8005.55 9288.87C8010.43 9266.08 8014.67 9247.53 8018.25 9233.21L8081.23 8963.19H8259.95L8320.98 9233.21C8324.24 9247.2 8328.3 9265.76 8333.19 9288.87C8338.4 9311.66 8343.6 9336.4 8348.81 9363.09C8354.35 9389.78 8359.39 9416.15 8363.95 9442.19C8368.51 9467.91 8371.92 9490.53 8374.2 9510.06C8376.16 9493.79 8379.41 9473.28 8383.97 9448.54C8388.53 9423.47 8393.08 9399.22 8397.64 9375.79C8402.52 9352.02 8406.27 9334.12 8408.87 9322.07L8487.97 8963.19H8674.01ZM9713.07 8963.19L9537.29 9677.05H9309.26L9240.9 9366.02C9239.6 9360.16 9237.48 9350.23 9234.55 9336.23C9231.95 9322.24 9228.86 9306.29 9225.28 9288.38C9222.02 9270.48 9218.93 9252.9 9216 9235.65C9213.4 9218.07 9211.44 9203.26 9210.14 9191.21C9208.84 9203.26 9206.72 9218.07 9203.79 9235.65C9200.86 9252.9 9197.61 9270.48 9194.03 9288.38C9190.77 9306.29 9187.52 9322.24 9184.26 9336.23C9181.33 9350.23 9179.22 9360.16 9177.91 9366.02L9109.07 9677.05H8881.04L8704.28 8963.19H8890.32L8967.95 9321.1C8969.91 9329.89 8972.51 9342.42 8975.77 9358.7C8979.35 9374.65 8982.93 9392.22 8986.51 9411.43C8990.41 9430.31 8993.99 9448.54 8997.25 9466.12C9000.51 9483.7 9002.78 9498.34 9004.09 9510.06C9006.69 9489.88 9010.11 9466.93 9014.34 9441.21C9018.9 9415.5 9023.78 9389.46 9028.99 9363.09C9034.52 9336.4 9039.73 9311.66 9044.61 9288.87C9049.5 9266.08 9053.73 9247.53 9057.31 9233.21L9120.3 8963.19H9299.01L9360.04 9233.21C9363.3 9247.2 9367.37 9265.76 9372.25 9288.87C9377.46 9311.66 9382.67 9336.4 9387.88 9363.09C9393.41 9389.78 9398.45 9416.15 9403.01 9442.19C9407.57 9467.91 9410.99 9490.53 9413.27 9510.06C9415.22 9493.79 9418.47 9473.28 9423.03 9448.54C9427.59 9423.47 9432.15 9399.22 9436.7 9375.79C9441.59 9352.02 9445.33 9334.12 9447.93 9322.07L9527.04 8963.19H9713.07ZM10752.1 8963.19L10576.4 9677.05H10348.3L10280 9366.02C10278.7 9360.16 10276.5 9350.23 10273.6 9336.23C10271 9322.24 10267.9 9306.29 10264.3 9288.38C10261.1 9270.48 10258 9252.9 10255.1 9235.65C10252.5 9218.07 10250.5 9203.26 10249.2 9191.21C10247.9 9203.26 10245.8 9218.07 10242.9 9235.65C10239.9 9252.9 10236.7 9270.48 10233.1 9288.38C10229.8 9306.29 10226.6 9322.24 10223.3 9336.23C10220.4 9350.23 10218.3 9360.16 10217 9366.02L10148.1 9677.05H9920.1L9743.34 8963.19H9929.38L10007 9321.1C10009 9329.89 10011.6 9342.42 10014.8 9358.7C10018.4 9374.65 10022 9392.22 10025.6 9411.43C10029.5 9430.31 10033.1 9448.54 10036.3 9466.12C10039.6 9483.7 10041.8 9498.34 10043.1 9510.06C10045.8 9489.88 10049.2 9466.93 10053.4 9441.21C10058 9415.5 10062.8 9389.46 10068.1 9363.09C10073.6 9336.4 10078.8 9311.66 10083.7 9288.87C10088.6 9266.08 10092.8 9247.53 10096.4 9233.21L10159.4 8963.19H10338.1L10399.1 9233.21C10402.4 9247.2 10406.4 9265.76 10411.3 9288.87C10416.5 9311.66 10421.7 9336.4 10426.9 9363.09C10432.5 9389.78 10437.5 9416.15 10442.1 9442.19C10446.6 9467.91 10450 9490.53 10452.3 9510.06C10454.3 9493.79 10457.5 9473.28 10462.1 9448.54C10466.7 9423.47 10471.2 9399.22 10475.8 9375.79C10480.6 9352.02 10484.4 9334.12 10487 9322.07L10566.1 8963.19H10752.1Z" fill="#C6DCFF"/>
</svg>
